<svg xmlns="http://www.w3.org/2000/svg" xmlns:xlink="http://www.w3.org/1999/xlink" width="130" height="77.653" viewBox="0 0 130 77.653"><defs><style>.a{fill:none;}.b{clip-path:url(#a);}.c{fill:#bd9a05;}.d{fill:#171f69;}</style><clipPath id="a"><rect class="a" width="130" height="77.653"/></clipPath></defs><g transform="translate(-157 -1215)"><g class="b" transform="translate(157 1215)"><path class="c" d="M0,3.755s20.782.757,35.732,13.766V32.411S26.946,11.214.06,7.476L0,3.755" transform="translate(0 2.868)"/><path class="c" d="M42.735,6.634V19.047A82.76,82.76,0,0,0,7.112,5.41V1.646s24.21,1.1,35.623,4.988" transform="translate(5.431 1.257)"/><path class="c" d="M47.6,1.522C38.47,1.071,17.089,0,17.089,0L17.1,2.9S34.638,4.452,47.656,7.891L47.6,1.522" transform="translate(13.051)"/><path class="d" d="M34.393,24.887l.9-.367c.623-.238.623-.586.623-1.9V14.684a.913.913,0,0,0-.623-.989l-.734-.349V12.98h2.367l.22.129c.439.586,1.319,1.887,2.363,3.3l4.305,5.845c.109.164.2.293.293.293.127,0,.127-.183.127-.533V14.959c0-.862-.053-.972-.75-1.245l-.989-.369V12.98h4.162v.365l-.5.166c-1.063.367-1.044.513-1.044,1.8v7.143c0,1.138.035,2.291.035,2.658l-.109.146h-.735l-.22-.146c-.293-.367-.878-1.173-1.8-2.4l-4.908-6.557c-.238-.33-.349-.5-.441-.5-.146,0-.146.2-.146.422v7.108c0,.788-.018,1.136.734,1.356l1.1.347v.367H34.393v-.367" transform="translate(26.266 9.913)"/><path class="d" d="M47.036,21.205c0,.455-.018,1.3-.459,1.589a2.614,2.614,0,0,1-1.466.459,1.764,1.764,0,0,1-1.817-2.012,1.324,1.324,0,0,1,.991-1.39,10.562,10.562,0,0,1,2.291-.4c.459,0,.459.127.459.511v1.245m2.758,2.672v-.367l-.825-.256c-.568-.166-.549-.312-.549-1.226V17.6c0-1.739-.474-2.82-2.485-2.82a3.725,3.725,0,0,0-1.944.459,3.058,3.058,0,0,0-.256.238l-1.085,1.1.275.293a3.647,3.647,0,0,1,2.332-1.1c1.411,0,1.8.714,1.8,2.471a.439.439,0,0,1-.166.4c-.146.109-2.109.365-3.228.75-.293.109-1.875.841-1.875,2.305A2.308,2.308,0,0,0,44.3,24.114c1.577,0,1.907-.806,2.457-.806.22,0,.33.312.459.57Z" transform="translate(31.912 11.289)"/><path class="d" d="M51.058,24.842a2.191,2.191,0,0,1-1.026.236c-1.533,0-1.988-.49-1.988-2.138V17.3c0-.4-.074-.533-.476-.624l-.843-.182v-.369l.935-.182c.511-.092.511-.22.638-.734l.455-1.686h.4l.33,1.87c.053.439.109.439.8.55l1.155.182v.369l-1.155.182c-.861.148-.861.2-.861.917V21.9c0,1.631.312,2.383,1.668,2.383.164,0,.439-.037.6-.056l.093.328-.734.291" transform="translate(35.684 10.326)"/><path class="d" d="M50.382,25.111l.825-.256c.549-.183.549-.275.549-1.228V18.335c0-.788-.018-.824-.623-.97l-.788-.2v-.293l2.684-.4.109.127v7.034c0,.935,0,1.044.57,1.228l.806.256v.367H50.382v-.367M51.5,13.637a.892.892,0,0,1,.951-.951.9.9,0,0,1,.952.951.892.892,0,0,1-.952.949.882.882,0,0,1-.951-.949" transform="translate(38.448 9.688)"/><path class="d" d="M54.955,19.065c0-2.252.679-3.55,2.347-3.55,1.889,0,2.714,1.573,2.714,3.878,0,2.288-.459,3.989-2.4,3.989-1.705,0-2.66-1.3-2.66-4.318m2.2,5.049c2.841,0,4.369-1.739,4.369-5.2,0-2.873-1.453-4.138-3.8-4.138-2.108,0-4.277,1.228-4.277,4.575,0,2.855,1.048,4.758,3.709,4.758" transform="translate(40.817 11.288)"/><path class="d" d="M58.871,23.511l.806-.256c.568-.183.568-.295.568-1.228V16.734c0-.769,0-.806-.568-.97l-.732-.2v-.293l2.466-.4c.127.312.2.771.439.778.369,0,1.086-.861,2.706-.861,1.178,0,2.563.457,2.563,2.928v4.319c0,.914,0,1.042.568,1.226l.806.256v.367H64.353v-.367l.829-.256c.552-.183.552-.275.552-1.226v-3.7c0-1.61-.349-2.69-2.134-2.69a1.737,1.737,0,0,0-1.972,1.811v4.575c0,.914,0,1.042.554,1.226l.827.256v.367H58.871v-.367" transform="translate(44.959 11.289)"/><path class="d" d="M70.227,21.205c0,.455-.018,1.3-.459,1.589a2.614,2.614,0,0,1-1.466.459,1.764,1.764,0,0,1-1.815-2.012,1.323,1.323,0,0,1,.989-1.39,10.58,10.58,0,0,1,2.291-.4c.459,0,.459.127.459.511v1.245m2.758,2.672v-.367l-.824-.256c-.568-.166-.55-.312-.55-1.226V17.6c0-1.739-.473-2.82-2.485-2.82a3.711,3.711,0,0,0-1.942.459,3.091,3.091,0,0,0-.257.238l-1.083,1.1.275.293a3.643,3.643,0,0,1,2.33-1.1c1.413,0,1.8.714,1.8,2.471a.439.439,0,0,1-.166.4c-.146.109-2.108.365-3.228.75-.293.109-1.875.841-1.875,2.305a2.308,2.308,0,0,0,2.517,2.414c1.579,0,1.908-.806,2.459-.806.22,0,.33.312.457.57Z" transform="translate(49.623 11.289)"/><path class="d" d="M70.253,25.289l.825-.258c.549-.164.549-.293.549-1.228v-9.37c0-.7-.018-.9-.566-1.046l-.808-.2v-.332l2.612-.4.146.109V23.8c0,.935-.019,1.046.568,1.228l.806.258v.367H70.253v-.367" transform="translate(53.652 9.51)"/><path class="d" d="M44.277,34.229A7.041,7.041,0,0,1,43.1,36.355a7.194,7.194,0,0,1-3.28.608c-3.5,0-5.39-2.2-5.39-6.136,0-4.72,2.861-6.61,6.4-6.61,1.374,0,3.536.46,3.536,1.781a.94.94,0,0,1-.109.365l-.587,1.263h-.31c-.166-1.243-1.393-2.506-3.483-2.506-2.584,0-3.72,1.7-3.72,5.213,0,3.476,1.228,5.725,4.2,5.725a4.226,4.226,0,0,0,3.757-2.67l.439.219-.275.623" transform="translate(26.297 18.494)"/><path class="d" d="M42.466,30.434c0-2.25.679-3.55,2.347-3.55,1.889,0,2.713,1.575,2.713,3.88,0,2.288-.459,3.988-2.4,3.988-1.705,0-2.66-1.3-2.66-4.318m2.2,5.051c2.841,0,4.369-1.739,4.369-5.2,0-2.873-1.453-4.136-3.8-4.136-2.108,0-4.277,1.228-4.277,4.575,0,2.854,1.048,4.758,3.709,4.758" transform="translate(31.279 19.972)"/><path class="d" d="M46.241,36.661l.824-.257c.55-.164.55-.293.55-1.228V25.8c0-.7-.018-.9-.568-1.044l-.806-.2v-.33l2.612-.4.146.111V35.176c0,.935-.019,1.044.568,1.228l.806.257v.367H46.241v-.367" transform="translate(35.314 18.193)"/><path class="d" d="M49.119,36.661l.825-.257c.55-.164.55-.293.55-1.228V25.8c0-.7-.019-.9-.57-1.044l-.806-.2v-.33l2.612-.4.146.111V35.176c0,.935-.019,1.044.568,1.228l.806.257v.367H49.119v-.367" transform="translate(37.512 18.193)"/><path class="d" d="M54.347,29.912c-.513,0-.716,0-.716-.6a2.212,2.212,0,0,1,2.06-2.427,2.45,2.45,0,0,1,2.335,2.554c0,.42-.166.474-.624.474H54.347m4.8,4.289-.164-.312a4.326,4.326,0,0,1-2.242.6,3.078,3.078,0,0,1-3.145-3.3c0-.55.295-.55.827-.55h4.356c.293,0,.312,0,.5-.127.164-.109.2-.129.2-.533,0-3.411-2.037-3.833-3.213-3.833-2.317,0-4.175,1.608-4.175,4.492,0,3.116,1.362,4.841,3.806,4.841a4.425,4.425,0,0,0,2.335-.587Z" transform="translate(39.778 19.972)"/><path class="d" d="M58.9,28.98a1.755,1.755,0,0,1,1.87-1.9,2.127,2.127,0,0,1,2.088,2.333,1.684,1.684,0,0,1-1.813,1.88A2.156,2.156,0,0,1,58.9,28.98m6.459-2.831-.2-.257-1.55.66a1.388,1.388,0,0,1-.513.166,6.556,6.556,0,0,0-1.875-.367c-2.026,0-3.827,1.007-3.827,3.086a2.307,2.307,0,0,0,.753,1.788c.367.4.919.363.919.6,0,.164-.2.2-.533.384-.22.131-.4.222-.478.423a6.693,6.693,0,0,0-.443,1.3c0,.547,1.032.693,1.032,1-.014.406-1.6.074-1.6,1.73,0,2.079,1.549,3.034,4.048,3.034,2.2,0,4.122-1.3,4.122-3.714a1.975,1.975,0,0,0-1.623-2.161,9.258,9.258,0,0,0-2.113-.109c-1.972,0-2.577,0-2.577-.737.055-.753.769-.993,1.959-.993,1.633,0,3.508-.873,3.508-2.9a6.067,6.067,0,0,0-.3-1.423c0-.183.2-.293.332-.439ZM58.422,36.5c0-1.545,1.654-1.748,2.831-1.748,1.452,0,2.571.478,2.571,1.84A2.184,2.184,0,0,1,61.4,38.972c-1.818,0-2.977-.9-2.977-2.467" transform="translate(43.56 19.774)"/><path class="d" d="M64.646,29.912c-.517,0-.718,0-.718-.6a2.211,2.211,0,0,1,2.058-2.427,2.45,2.45,0,0,1,2.337,2.554c0,.42-.166.474-.626.474H64.646m4.8,4.289-.166-.312a4.314,4.314,0,0,1-2.24.6,3.078,3.078,0,0,1-3.145-3.3c0-.55.295-.55.827-.55h4.356c.293,0,.312,0,.494-.127.166-.109.2-.129.2-.533,0-3.411-2.037-3.833-3.213-3.833-2.317,0-4.175,1.608-4.175,4.492,0,3.116,1.362,4.841,3.806,4.841a4.425,4.425,0,0,0,2.335-.587Z" transform="translate(47.641 19.972)"/><path class="d" d="M34.382,49.938l1.055-.36c.72-.226.743-.406.743-2.116V38.237c0-1.621,0-1.891-.743-2.138l-1.055-.339v-.432h5.453v.432l-1.078.339c-.743.247-.72.427-.72,2.138v9.224c0,1.734-.023,1.868.72,2.116l1.078.36v.432H34.382v-.432" transform="translate(26.257 26.98)"/><path class="d" d="M38.265,48.271l.989-.316c.7-.226.7-.36.7-1.511V39.9c0-.924-.021-.968-.7-1.162l-.921-.247v-.36l3.09-.5c.136.5.2,1.037.473,1.037a7.835,7.835,0,0,0,1.416-.871,2.2,2.2,0,0,1,1.056-.293c.675,0,1.393.272,1.393.788a1.872,1.872,0,0,1-.09.383l-.517,1.353h-.337c-.2-.586-.337-1.1-1.439-1.1-1.393,0-1.707.744-1.707,1.735v5.776c0,1.24,0,1.33.72,1.511l1.145.316V48.7H38.265v-.432" transform="translate(29.223 28.648)"/><path class="d" d="M45.818,42.18c-.628,0-.875,0-.875-.75,0-1.249.672-3.019,2.511-3.019A3.026,3.026,0,0,1,50.3,41.59c0,.522-.2.591-.764.591H45.818m5.855,5.256-.2-.383a5.284,5.284,0,0,1-2.737.741A3.764,3.764,0,0,1,44.9,43.754c0-.674.358-.674,1.009-.674h5.318c.358,0,.381,0,.6-.159.2-.134.247-.157.247-.651,0-4.24-2.49-4.758-3.926-4.758-2.827,0-5.1,1.989-5.1,5.568C43.047,46.9,44.717,49,47.7,49a5.4,5.4,0,0,0,2.848-.716Z" transform="translate(32.875 28.648)"/><path class="d" d="M48.907,50.424l1.011-.316c.675-.2.675-.358.675-1.5V37.119c0-.854-.023-1.1-.7-1.28l-.989-.247v-.406l3.226-.494.182.134V48.6c0,1.146-.023,1.28.695,1.5l.989.316v.432H48.907v-.432" transform="translate(37.35 26.494)"/><path class="d" d="M59.079,45.427c0,.575-.023,1.616-.559,1.977a3.141,3.141,0,0,1-1.781.564c-1.36,0-2.206-.9-2.206-2.487a1.637,1.637,0,0,1,1.2-1.72,12.815,12.815,0,0,1,2.785-.5c.559,0,.559.159.559.633v1.529M62.485,48.7v-.432l-1.011-.316c-.7-.2-.674-.384-.674-1.513V40.977c0-2.145-.589-3.467-3.06-3.467a4.488,4.488,0,0,0-2.362.561,3.862,3.862,0,0,0-.312.291l-1.325,1.351.339.362a4.423,4.423,0,0,1,2.836-1.355c1.716,0,2.185.882,2.185,3.049a.545.545,0,0,1-.2.5c-.178.136-2.563.452-3.922.926-.356.136-2.3,1.039-2.3,2.845a2.82,2.82,0,0,0,3.076,2.97c1.917,0,2.317-.97,2.986-.97.268-.012.4.365.561.668Z" transform="translate(40.233 28.646)"/><path class="d" d="M58.908,48.272l.989-.316c.7-.224.7-.36.7-1.51v-6.51c0-.945,0-.991-.7-1.194L59,38.5v-.36l3.044-.5c.159.383.249.945.541.907.452,0,1.328-1.037,3.31-1.037,1.441,0,3.162.552,3.162,3.593V46.44c0,1.132,0,1.289.7,1.515l.989.317V48.7h-5.1v-.432l1.012-.317c.675-.226.675-.339.675-1.515V41.872c0-1.989-.427-3.325-2.612-3.325a2.131,2.131,0,0,0-2.409,2.238V46.44c0,1.132,0,1.289.675,1.515L64,48.272V48.7h-5.1v-.432" transform="translate(44.988 28.646)"/><path class="d" d="M73.921,47.717c0,1.139-.247,1.614-.674,1.885a3.481,3.481,0,0,1-1.9.519c-2.353,0-3.049-2.123-3.049-5.173,0-3.116.808-4.383,3.005-4.383a3.371,3.371,0,0,1,2.062.566c.4.384.561.721.561,2.122v4.464m3.406,3.139v-.432l-1.011-.316c-.674-.2-.674-.293-.674-1.51V34.826l-.2-.134-3.355.49v.4l1.007.245c.808.2.831.291.831,1.275v2.146c0,.582-.046.582-.2.582a4.331,4.331,0,0,1-.806-.09,7.714,7.714,0,0,0-1.1-.079c-2.69,0-5.37,1.556-5.37,6.231,0,3.118.993,5.261,4.094,5.261,1.9,0,2.531-.991,3.071-.991.247-.014.381.409.519.69Z" transform="translate(50.742 26.494)"/><path class="d" d="M69.2,29.707c0-.975.376-3.224,1.975-3.224.772,0,1.116.515,1.116,1.4,0,1.316-.483,3.266-1.889,3.266-.9,0-1.2-.526-1.2-1.446m.817,1.843c2.489,0,3.129-2.453,3.129-3.674,0-1.189-.534-1.792-1.67-1.792-2.113,0-3.127,1.855-3.127,3.741a1.539,1.539,0,0,0,1.668,1.725" transform="translate(52.198 19.92)"/><path class="d" d="M71.291,34.819c.042-.194.245-.933.492-2.113.1-.492.192-.975.279-1.467l.515-3.046a1.841,1.841,0,0,0,.032-.256c0-.129-.032-.183-.3-.236l-.589-.108.032-.213.557-.076c.492-.063.45-.215.526-.483a4.68,4.68,0,0,1,.34-1.06,1.816,1.816,0,0,1,1.63-1.03,1.167,1.167,0,0,1,.559.085c.074.065.192.2.192.27a.747.747,0,0,1-.053.257l-.236.578H75.1c0-.171-.182-.739-.709-.739-.762,0-.794,1.1-.794,1.822,0,.226.042.268.354.31l.857.139-.032.215-.9.1c-.312.044-.353.055-.429.407l-.8,3.549a8.806,8.806,0,0,1-.8,2.55l-.363.549h-.182" transform="translate(54.444 18.887)"/></g></g></svg>